<svg width="149.167" height="172.243" xmlns="http://www.w3.org/2000/svg" xmlns:svg="http://www.w3.org/2000/svg">
 <g>
  <title>Layer 1</title>
  <polygon id="svg_1" points="149.167,129.183 74.583,172.243 0,129.183 0,43.061 74.583,0 149.167,43.061 " fill="#585858"/>
  <path id="svg_2" d="m41.88,84.75l25.09,26.783l-12.081,-26.783l-13.009,0zm32.703,31.091l14.057,-31.091l-28.113,0l14.056,31.091zm-19.574,-36.247l8.217,-15.466l-10.553,0l-11.6,15.466l13.936,0zm27.187,31.939l25.091,-26.783l-13.01,0l-12.081,26.783zm-21.347,-31.939l27.469,0l-8.217,-15.466l-11.036,0l-8.216,15.466zm33.308,0l13.936,0l-11.599,-15.466l-10.552,0l8.215,15.466zm5.678,-19.574l15.467,20.621c0.376,0.483 0.55,1.04 0.523,1.671c-0.027,0.632 -0.257,1.174 -0.686,1.632l-38.664,41.243c-0.483,0.536 -1.113,0.804 -1.893,0.804c-0.778,0 -1.408,-0.268 -1.892,-0.804l-38.664,-41.243c-0.429,-0.457 -0.658,-1 -0.685,-1.632c-0.027,-0.631 0.147,-1.188 0.523,-1.671l15.467,-20.621c0.484,-0.699 1.168,-1.047 2.054,-1.047l46.398,0c0.884,0 1.57,0.349 2.052,1.047z" fill="#585858"/>
  <text transform="matrix(5.037682247460528,0,0,4.977750769511396,-191.38560382248517,-142.3197898936912) " xml:space="preserve" text-anchor="middle" font-family="Montserrat Light" font-size="22" id="svg_3" y="53.37312" x="52.9006" stroke-linecap="null" stroke-linejoin="null" stroke-dasharray="null" stroke-width="0" fill="#ffffff">55</text>
 </g>
</svg>